# xmcd CD database file
#
# Track frame offsets:
#	187
#	18664
#	40479
#	57554
#
# Disc length: 1084 seconds
#
# Revision: 3
# Processed by: cddbd v1.5.2PL0 Copyright (c) Steve Scherf et al.
# Submitted via: CDex 1.51
#
DISCID=35043a04
DTITLE=Bjork - Venus as a Boy
DYEAR=1993
DGENRE=Rock
TTITLE0=Venus as A Boy - edit
TTITLE1=Venus as A Boy - Mykaell Riley Mix
TTITLE2=There's More to Life than This (non-toilet)
TTITLE3=Violently Happy - Domestic Mix
EXTD=YEAR: 1993
EXTT0=
EXTT1=
EXTT2=
EXTT3=
PLAYORDER=
